#N canvas 333 162 1531 771 12;
#X obj 807 171 udpreceive 9000;
#X obj 179 263 tgl 19 0 empty empty empty 0 -10 0 12 #fcfcfc #000000 #000000 0 1;
#X floatatom 266 106 5 0 0 0 - - - 0;
#X obj 813 216 osc/unpackOSC;
#X obj 142 165 osc/packOSC;
#X obj 176 225 udpsend localhost 9001;
#X msg 247 198 connect localhost 9001;
#X msg 50 58 send /test 440;
#X msg 196 47 send /test 1 2 3;
#X obj 214 566 hsl 162 19 0 127 0 0 empty empty empty -2 -10 0 12 #ffc7c6 #000000 #000000 0 1;
#X obj 446 564 hsl 162 19 0 127 0 0 empty empty empty -2 -10 0 12 #ffe3c6 #000000 #000000 0 1;
#X obj 821 679 tgl 19 0 empty empty empty 0 -10 0 12 #fcfcfc #000000 #000000 0 1;
#X text 210 535 Sin;
#X text 443 539 Saw;
#X obj 77 661 hsl 162 19 0 127 0 0 empty empty empty -2 -10 0 12 #c7c6ff #000000 #000000 0 1;
#X obj 748 677 tgl 19 0 empty empty empty 0 -10 0 12 #fcfcfc #000000 #000000 0 1;
#X text 58 639 Square;
#N canvas 2824 295 450 300 sin 1;
#X obj 93 75 mtof;
#X obj 93 99 osc~;
#X obj 92 165 *~;
#X text 94 20 Sin;
#X obj 93 49 inlet;
#X obj 153 135 inlet;
#X obj 92 203 outlet~;
#X connect 0 0 1 0;
#X connect 1 0 2 0;
#X connect 2 0 6 0;
#X connect 4 0 0 0;
#X connect 5 0 2 1;
#X restore 211 612 pd sin;
#X obj 784 679 tgl 19 0 empty empty empty 0 -10 0 12 #fcfcfc #000000 #000000 0 1;
#N canvas 2564 274 450 300 saw 0;
#X obj 83 78 mtof;
#X obj 82 159 *~;
#X obj 83 102 phasor~;
#X obj 83 39 inlet;
#X obj 127 133 inlet;
#X obj 82 183 outlet~;
#X connect 0 0 2 0;
#X connect 1 0 5 0;
#X connect 2 0 1 0;
#X connect 3 0 0 0;
#X connect 4 0 1 1;
#X restore 443 615 pd saw;
#N canvas 1121 355 450 300 square 0;
#X obj 34 49 mtof;
#X obj 34 164 *~;
#X obj 34 73 phasor~;
#X obj 34 120 expr~ $v1 > 0.5;
#X obj 79 145 inlet;
#X obj 34 23 inlet;
#X obj 34 188 outlet~;
#X connect 0 0 2 0;
#X connect 1 0 6 0;
#X connect 2 0 3 0;
#X connect 3 0 1 0;
#X connect 4 0 1 1;
#X connect 5 0 0 0;
#X restore 59 709 pd square;
#X obj 1081 926 dac~ 1 2;
#X obj 398 585 r s2;
#X obj 1110 792 *~;
#X floatatom 1120 653 5 0 0 0 - - - 0;
#X obj 1048 481 vsl 19 162 0 1 0 0 empty empty empty 0 -9 0 12 #fcfcfc #000000 #000000 0 1;
#X obj 402 787 throw~ \$0-output;
#X obj 935 716 catch~ \$0-output;
#N canvas 0 50 450 250 (subpatch) 0;
#X array Osc1 100 float 1;
#A 0 0 0 0 0 0 0 0 0 0 0 0 0 0 0 0 0 0 0 0 0 0 0 0 0 0 0 0 0 0 0 0 0 0 0 0 0 0 0 0 0 0 0 0 0 0 0 0 0 0 0 0 0 0 0 0 0 0 0 0 0 0 0 0 0 0 0 0 0 0 0 0 0 0 0 0 0 0 0 0 0 0 0 0 0 0 0 0 0 0 0 0 0 0 0 0 0 0 0 0 0;
#X coords 0 1 99 -1 200 140 1 0 0;
#X restore 577 829 graph;
#X obj 1201 849 tabwrite~ Osc1;
#X obj 1204 736 tgl 19 0 empty empty empty 0 -10 0 12 #fcfcfc #000000 #000000 0 1;
#X obj 1204 760 metro 100;
#N canvas 2168 64 1100 956 drum 0;
#X obj 123 177 line~;
#X obj 124 205 sqrt~;
#X obj 125 238 *~ 20;
#X obj 126 286 -~ 0.25;
#X obj 128 332 cos~;
#X obj 323 156 t b b;
#X msg 324 182 1 \, 0 100;
#X obj 324 206 line~;
#X obj 324 230 pow~ 4;
#X obj 324 254 *~;
#X obj 383 235 osc~ 200;
#X obj 324 278 +~;
#X msg 463 184 1 \, 0 200;
#X obj 463 208 line~;
#X obj 463 256 *~;
#X obj 533 213 noise~;
#X obj 463 232 pow~ 4;
#X obj 524 240 hip~ 3000;
#X obj 522 271 bp~ 5000 2;
#X msg 125 148 0 \, 1 200;
#X obj 725 273 line~;
#X obj 725 297 pow~ 4;
#X obj 725 321 *~;
#X obj 823 254 hip~ 8000;
#X obj 824 291 hip~ 8000;
#X obj 662 42 phasor~ 350;
#X obj 662 66 *~ 2;
#X obj 662 90 -~ 1;
#X obj 764 71 *~ 2;
#X obj 764 95 -~ 1;
#X obj 764 47 phasor~ 800;
#X obj 818 218 hip~ 8000;
#X obj 823 162 noise~;
#X obj 824 189 /~ 4;
#X obj 725 345 *~ 50;
#X msg 725 248 1 \, 0 200;
#X obj 662 121 +~;
#X obj 128 382 throw~ \$0-output;
#X obj 325 327 throw~ \$0-output;
#X obj 725 369 throw~ \$0-output;
#X obj 116 98 r bass;
#X obj 320 113 r tom;
#X obj 719 216 r ride;
#X connect 0 0 1 0;
#X connect 1 0 2 0;
#X connect 2 0 3 0;
#X connect 3 0 4 0;
#X connect 4 0 37 0;
#X connect 5 0 6 0;
#X connect 5 1 12 0;
#X connect 6 0 7 0;
#X connect 7 0 8 0;
#X connect 8 0 9 0;
#X connect 9 0 11 0;
#X connect 10 0 9 1;
#X connect 11 0 38 0;
#X connect 12 0 13 0;
#X connect 13 0 16 0;
#X connect 14 0 11 1;
#X connect 15 0 17 0;
#X connect 16 0 14 0;
#X connect 17 0 18 0;
#X connect 18 0 14 1;
#X connect 19 0 0 0;
#X connect 20 0 21 0;
#X connect 21 0 22 0;
#X connect 22 0 34 0;
#X connect 23 0 24 0;
#X connect 24 0 22 1;
#X connect 25 0 26 0;
#X connect 26 0 27 0;
#X connect 27 0 36 0;
#X connect 28 0 29 0;
#X connect 29 0 36 1;
#X connect 30 0 28 0;
#X connect 31 0 23 0;
#X connect 32 0 33 0;
#X connect 33 0 31 0;
#X connect 34 0 39 0;
#X connect 35 0 20 0;
#X connect 36 0 31 0;
#X connect 40 0 19 0;
#X connect 41 0 5 0;
#X connect 42 0 35 0;
#X restore 196 398 pd drum;
#X obj 142 734 hsl 162 19 0 1 0 0 empty empty empty -2 -10 0 12 #fcfcfc #000000 #000000 0 1;
#X obj 280 652 hsl 162 19 0 1 0 0 empty empty empty -2 -10 0 12 #fcfcfc #000000 #000000 0 1;
#X obj 523 651 hsl 162 19 0 1 0 0 empty empty empty -2 -10 0 12 #fcfcfc #000000 #000000 0 1;
#X obj 162 785 *~;
#X obj 261 696 *~;
#X obj 462 680 *~;
#X obj 168 512 r sin;
#X obj 749 359 s square;
#X obj 779 335 s sin;
#X obj 820 316 s saw;
#X obj 885 315 s vsq;
#X obj 919 337 s vsin;
#X obj 959 361 s vsaw;
#X obj 1000 337 s tw;
#X obj 1030 312 s vol;
#X obj 1077 337 s bass;
#X obj 1106 361 s tom;
#X obj 1153 337 s ride;
#X obj 396 529 r saw;
#X obj 46 616 r square;
#X obj 816 265 route /square /sin /saw /vSquare /vSin /vSaw /turnWaves /volumen /bassdrum /tomdrum /ridedrum;
#X obj 746 563 r tw;
#X listbox 747 619 20 0 0 0 - - - 0;
#X obj 747 646 unpack f f f;
#X obj 518 627 r vsaw;
#X obj 140 707 r vsq;
#X obj 285 626 r vsin;
#X obj 1001 449 v vol;
#X obj 362 334 s vsq;
#X obj 400 365 s vsin;
#X obj 451 319 s vsaw;
#X obj 496 351 s tw;
#X obj 538 328 s vol;
#X obj 590 324 s bass;
#X obj 640 349 s tom;
#X obj 679 318 s ride;
#X obj 355 267 route /waveValue /vSquare /vSin /vSaw /turnWaves /volumen /bassdrum /tomdrum /ridedrum;
#X obj 318 315 s wv;
#X obj 61 459 r wv;
#X connect 0 0 3 0;
#X connect 3 0 53 0;
#X connect 4 0 5 0;
#X connect 4 1 2 0;
#X connect 5 0 1 0;
#X connect 6 0 5 0;
#X connect 7 0 4 0;
#X connect 8 0 4 0;
#X connect 9 0 17 0;
#X connect 10 0 19 0;
#X connect 11 0 19 1;
#X connect 14 0 20 0;
#X connect 15 0 20 1;
#X connect 17 0 37 0;
#X connect 18 0 17 1;
#X connect 19 0 38 0;
#X connect 20 0 36 0;
#X connect 22 0 19 0;
#X connect 23 0 21 0;
#X connect 23 0 21 1;
#X connect 23 0 29 0;
#X connect 24 0 23 1;
#X connect 25 0 24 0;
#X connect 27 0 23 0;
#X connect 30 0 31 0;
#X connect 31 0 29 0;
#X connect 33 0 36 1;
#X connect 34 0 37 1;
#X connect 35 0 38 1;
#X connect 36 0 26 0;
#X connect 37 0 26 0;
#X connect 38 0 26 0;
#X connect 39 0 9 0;
#X connect 51 0 10 0;
#X connect 52 0 14 0;
#X connect 53 0 40 0;
#X connect 53 1 41 0;
#X connect 53 2 42 0;
#X connect 53 3 43 0;
#X connect 53 4 44 0;
#X connect 53 5 45 0;
#X connect 53 6 46 0;
#X connect 53 7 47 0;
#X connect 53 8 48 0;
#X connect 53 9 49 0;
#X connect 53 10 50 0;
#X connect 54 0 55 0;
#X connect 55 0 56 0;
#X connect 56 0 15 0;
#X connect 56 1 18 0;
#X connect 56 2 11 0;
#X connect 57 0 35 0;
#X connect 58 0 33 0;
#X connect 59 0 34 0;
#X connect 60 0 25 0;
#X connect 69 0 70 0;
#X connect 69 1 61 0;
#X connect 69 2 62 0;
#X connect 69 3 63 0;
#X connect 69 4 64 0;
#X connect 69 5 65 0;
#X connect 69 6 66 0;
#X connect 69 7 67 0;
#X connect 69 8 68 0;
#X connect 71 0 14 0;
#X connect 71 0 9 0;
#X connect 71 0 10 0;
